<svg width="180" height="35" viewBox="0 0 180 35" fill="none" xmlns="http://www.w3.org/2000/svg">
<path d="M6.00912 21.5126C4.848 21.5126 3.86106 21.1062 3.04827 20.2934C2.23549 19.4806 1.8291 18.4937 1.8291 17.3326C1.8291 16.1715 2.23549 15.1845 3.04827 14.3717C3.86106 13.5589 4.848 13.1525 6.00912 13.1525V10.3659C6.00912 9.59953 6.28222 8.94373 6.8284 8.39847C7.37459 7.85321 8.03039 7.58012 8.7958 7.57919H12.9758C12.9758 6.41807 13.3822 5.43112 14.195 4.61834C15.0078 3.80556 15.9947 3.39917 17.1558 3.39917C18.317 3.39917 19.3039 3.80556 20.1167 4.61834C20.9295 5.43112 21.3359 6.41807 21.3359 7.57919H25.5159C26.2822 7.57919 26.9385 7.85228 27.4847 8.39847C28.0309 8.94466 28.3035 9.60046 28.3026 10.3659V13.1525C29.4637 13.1525 30.4506 13.5589 31.2634 14.3717C32.0762 15.1845 32.4826 16.1715 32.4826 17.3326C32.4826 18.4937 32.0762 19.4806 31.2634 20.2934C30.4506 21.1062 29.4637 21.5126 28.3026 21.5126V27.0859C28.3026 27.8523 28.0299 28.5085 27.4847 29.0547C26.9394 29.6009 26.2831 29.8736 25.5159 29.8726H8.7958C8.02946 29.8726 7.37366 29.6 6.8284 29.0547C6.28314 28.5095 6.01005 27.8532 6.00912 27.0859V21.5126ZM12.9758 18.7259C13.5564 18.7259 14.0501 18.5229 14.4569 18.117C14.8638 17.7111 15.0668 17.2174 15.0658 16.6359C15.0649 16.0544 14.8619 15.5612 14.4569 15.1562C14.0519 14.7512 13.5582 14.5477 12.9758 14.5459C12.3934 14.544 11.9002 14.7475 11.4961 15.1562C11.092 15.5649 10.8886 16.0581 10.8858 16.6359C10.883 17.2137 11.0865 17.7074 11.4961 18.117C11.9057 18.5267 12.399 18.7296 12.9758 18.7259ZM21.3359 18.7259C21.9164 18.7259 22.4101 18.5229 22.817 18.117C23.2238 17.7111 23.4268 17.2174 23.4259 16.6359C23.4249 16.0544 23.222 15.5612 22.817 15.1562C22.412 14.7512 21.9183 14.5477 21.3359 14.5459C20.7534 14.544 20.2602 14.7475 19.8561 15.1562C19.4521 15.5649 19.2486 16.0581 19.2458 16.6359C19.2431 17.2137 19.4465 17.7074 19.8561 18.117C20.2658 18.5267 20.759 18.7296 21.3359 18.7259ZM11.5825 24.2993H22.7292V21.5126H11.5825V24.2993ZM8.7958 27.0859H25.5159V10.3659H8.7958V27.0859Z" fill="#3071F2"/>
<path d="M52.001 10.1333V26.8115H48.0383V10.1333H41.4423V7.07349H58.5971V10.1333H52.001ZM60.3621 16.9049C60.3621 15.3499 60.6296 13.9371 61.1646 12.6664C61.6997 11.3789 62.4437 10.2837 63.3968 9.38086C64.3498 8.47798 65.4701 7.7841 66.7575 7.29921C68.0617 6.79761 69.4662 6.54681 70.971 6.54681C72.4925 6.54681 73.897 6.79761 75.1844 7.29921C76.4886 7.7841 77.6088 8.47798 78.5452 9.38086C79.4982 10.2837 80.2339 11.3789 80.7522 12.6664C81.2873 13.9371 81.5548 15.3499 81.5548 16.9049C81.5548 18.4766 81.2873 19.9062 80.7522 21.1936C80.2339 22.4643 79.4982 23.5511 78.5452 24.454C77.6088 25.3736 76.4886 26.0759 75.1844 26.5607C73.897 27.0623 72.4925 27.3131 70.971 27.3131C69.4662 27.3131 68.0617 27.0623 66.7575 26.5607C65.4701 26.0759 64.3498 25.3736 63.3968 24.454C62.4437 23.5511 61.6997 22.4643 61.1646 21.1936C60.6296 19.9062 60.3621 18.4766 60.3621 16.9049ZM64.3247 16.9049C64.3247 18.0251 64.5003 19.0367 64.8514 19.9396C65.2025 20.8258 65.6791 21.5865 66.281 22.2219C66.8829 22.8405 67.5851 23.3171 68.3877 23.6515C69.207 23.9859 70.0681 24.1531 70.971 24.1531C71.8906 24.1531 72.7517 23.9859 73.5542 23.6515C74.3568 23.3171 75.059 22.8405 75.6609 22.2219C76.2629 21.5865 76.731 20.8258 77.0654 19.9396C77.4166 19.0367 77.5921 18.0251 77.5921 16.9049C77.5921 15.8014 77.4166 14.8149 77.0654 13.9454C76.731 13.0593 76.2629 12.3069 75.6609 11.6882C75.059 11.0529 74.3568 10.568 73.5542 10.2336C72.7517 9.89919 71.8906 9.73199 70.971 9.73199C70.0514 9.73199 69.1819 9.89919 68.3626 10.2336C67.5601 10.568 66.8578 11.0529 66.2559 11.6882C65.654 12.3069 65.1775 13.0593 64.8263 13.9454C64.4919 14.8149 64.3247 15.8014 64.3247 16.9049ZM88.9505 26.8115V18.4599L81.8528 7.07349H86.1415L90.9318 14.7229L95.7221 7.07349H100.011L92.9131 18.4599V26.8115H88.9505ZM100.872 16.93C100.872 15.4419 101.123 14.0625 101.625 12.7918C102.126 11.521 102.829 10.4259 103.731 9.50626C104.651 8.56994 105.755 7.84262 107.042 7.32429C108.329 6.80597 109.751 6.54681 111.306 6.54681C115.051 6.54681 118.061 8.1603 120.335 11.3873L117.801 13.3686C117.166 12.1982 116.28 11.2786 115.143 10.6098C114.006 9.92427 112.744 9.58151 111.356 9.58151C110.403 9.58151 109.525 9.78215 108.722 10.1834C107.92 10.568 107.226 11.0947 106.641 11.7635C106.072 12.4156 105.629 13.193 105.312 14.0959C104.994 14.9821 104.835 15.9268 104.835 16.93C104.835 17.9666 105.002 18.928 105.337 19.8142C105.671 20.7004 106.148 21.4778 106.766 22.1466C107.385 22.8154 108.12 23.3421 108.973 23.7267C109.826 24.0945 110.779 24.2785 111.832 24.2785C112.484 24.2785 113.103 24.1781 113.688 23.9775C114.273 23.7769 114.817 23.501 115.318 23.1499C115.837 22.7987 116.313 22.3891 116.748 21.9209C117.183 21.436 117.567 20.9177 117.902 20.366L120.41 22.4727C119.306 24.0611 118.019 25.2649 116.547 26.0842C115.076 26.9035 113.329 27.3131 111.306 27.3131C109.834 27.3131 108.463 27.0707 107.193 26.5858C105.922 26.1009 104.818 25.4071 103.882 24.5042C102.946 23.6013 102.21 22.5145 101.675 21.2438C101.14 19.9563 100.872 18.5184 100.872 16.93ZM136.169 26.8115V16.7043L126.914 19.2374V26.8115H122.952V7.07349H126.914V16.2277L136.169 13.6946V7.07349H140.132V26.8115H136.169ZM142.764 26.8115L150.037 7.07349H154.376L161.649 26.8115H157.712L155.455 20.4663L148.257 22.4225L146.702 26.8115H142.764ZM149.46 19.0869L154.476 17.7325L152.194 11.3622L149.46 19.0869ZM171.94 10.1333V26.8115H167.977V10.1333H161.381V7.07349H178.536V10.1333H171.94Z" fill="#444444"/>
</svg>
