<svg width="25" height="25" viewBox="0 0 25 25" fill="none" xmlns="http://www.w3.org/2000/svg">
<rect x="0.779785" y="0.527344" width="24" height="24" rx="4" fill="#4ECE3D"/>
<path d="M18.3515 8.67667C18.6514 7.84699 17.8474 7.043 17.0177 7.34363L6.87764 11.0109C6.04519 11.3122 5.94451 12.4481 6.71032 12.8917L9.9471 14.7656L12.8374 11.8753C12.9684 11.7488 13.1437 11.6788 13.3258 11.6804C13.5078 11.682 13.682 11.755 13.8107 11.8837C13.9394 12.0124 14.0124 12.1866 14.014 12.3686C14.0156 12.5507 13.9456 12.726 13.8192 12.857L10.9288 15.7473L12.8034 18.9841C13.2464 19.7499 14.3822 19.6485 14.6835 18.8168L18.3515 8.67667Z" fill="white"/>
</svg>
