<svg width="24" height="23" viewBox="0 0 24 23" fill="none" xmlns="http://www.w3.org/2000/svg">
<g clip-path="url(#clip0_3040_25)">
<path fill-rule="evenodd" clip-rule="evenodd" d="M10.796 0.57657C12.653 0.15857 14 1.75457 14 3.33257V17.3326C14 18.9106 12.653 20.5066 10.796 20.0886C6.334 19.0846 3 15.0986 3 10.3326C3 5.56657 6.334 1.58057 10.796 0.57657ZM16.293 6.62557C16.4805 6.4381 16.7348 6.33278 17 6.33278C17.2652 6.33278 17.5195 6.4381 17.707 6.62557L20.707 9.62557C20.8945 9.8131 20.9998 10.0674 20.9998 10.3326C20.9998 10.5977 20.8945 10.852 20.707 11.0396L17.707 14.0396C17.5184 14.2217 17.2658 14.3225 17.0036 14.3202C16.7414 14.318 16.4906 14.2128 16.3052 14.0274C16.1198 13.842 16.0146 13.5912 16.0123 13.329C16.01 13.0668 16.1108 12.8142 16.293 12.6256L17.586 11.3326H9C8.73478 11.3326 8.48043 11.2272 8.29289 11.0397C8.10536 10.8521 8 10.5978 8 10.3326C8 10.0674 8.10536 9.813 8.29289 9.62546C8.48043 9.43793 8.73478 9.33257 9 9.33257H17.586L16.293 8.03957C16.1055 7.85204 16.0002 7.59773 16.0002 7.33257C16.0002 7.06741 16.1055 6.8131 16.293 6.62557Z" fill="#999999"/>
</g>
<defs>
<clipPath id="clip0_3040_25">
<rect width="23.9998" height="21.6471" fill="white" transform="translate(0 0.509033)"/>
</clipPath>
</defs>
</svg>
