<svg width="24" height="22" viewBox="0 0 24 22" fill="none" xmlns="http://www.w3.org/2000/svg">
<g clip-path="url(#clip0_3040_20)">
<path d="M21.3989 19.3338C21.3331 19.4479 21.2384 19.5426 21.1243 19.6084C21.0103 19.6742 20.8809 19.7089 20.7492 19.7088H2.74923C2.61764 19.7087 2.48841 19.674 2.3745 19.6081C2.26059 19.5422 2.16602 19.4475 2.10029 19.3335C2.03455 19.2195 1.99997 19.0902 2 18.9587C2.00003 18.8271 2.03469 18.6978 2.10048 18.5838C3.52829 16.1154 5.72861 14.3454 8.29642 13.5063C7.02626 12.7502 6.03943 11.598 5.48747 10.2268C4.93551 8.85552 4.84894 7.34098 5.24105 5.91575C5.63316 4.49052 6.48228 3.23341 7.658 2.33747C8.83373 1.44153 10.271 0.956299 11.7492 0.956299C13.2274 0.956299 14.6647 1.44153 15.8405 2.33747C17.0162 3.23341 17.8653 4.49052 18.2574 5.91575C18.6495 7.34098 18.563 8.85552 18.011 10.2268C17.459 11.598 16.4722 12.7502 15.202 13.5063C17.7699 14.3454 19.9702 16.1154 21.398 18.5838C21.464 18.6978 21.4988 18.8271 21.4989 18.9587C21.4991 19.0904 21.4646 19.2198 21.3989 19.3338Z" fill="#999999"/>
</g>
<defs>
<clipPath id="clip0_3040_20">
<rect width="24" height="20.7526" fill="white" transform="translate(0 0.956299)"/>
</clipPath>
</defs>
</svg>
